<?xml version="1.0" encoding="UTF-8" standalone="no"?>
<!-- Creator: CorelDRAW X8 -->

<svg
   xmlns:dc="http://purl.org/dc/elements/1.1/"
   xmlns:cc="http://creativecommons.org/ns#"
   xmlns:rdf="http://www.w3.org/1999/02/22-rdf-syntax-ns#"
   xmlns:svg="http://www.w3.org/2000/svg"
   xmlns="http://www.w3.org/2000/svg"
   xmlns:sodipodi="http://sodipodi.sourceforge.net/DTD/sodipodi-0.dtd"
   xmlns:inkscape="http://www.inkscape.org/namespaces/inkscape"
   xml:space="preserve"
   width="253.82401"
   height="253.82401"
   version="1.1"
   style="clip-rule:evenodd;fill-rule:evenodd;image-rendering:optimizeQuality;shape-rendering:geometricPrecision;text-rendering:geometricPrecision"
   viewBox="0 0 2644.0798 2644"
   id="svg10"
   sodipodi:docname="centered_simple.svg"
   inkscape:version="0.92.4 5da689c313, 2019-01-14"><metadata
   id="metadata14"><rdf:RDF><cc:Work
       rdf:about=""><dc:format>image/svg+xml</dc:format><dc:type
         rdf:resource="http://purl.org/dc/dcmitype/StillImage" /><dc:title></dc:title></cc:Work></rdf:RDF></metadata><sodipodi:namedview
   pagecolor="#ffffff"
   bordercolor="#666666"
   borderopacity="1"
   objecttolerance="10"
   gridtolerance="10"
   guidetolerance="10"
   inkscape:pageopacity="0"
   inkscape:pageshadow="2"
   inkscape:window-width="1912"
   inkscape:window-height="1983"
   id="namedview12"
   showgrid="false"
   units="px"
   inkscape:zoom="2.6298096"
   inkscape:cx="149.37936"
   inkscape:cy="113.2339"
   inkscape:window-x="1920"
   inkscape:window-y="173"
   inkscape:window-maximized="0"
   inkscape:current-layer="Layer_x0020_1" />
 <defs
   id="defs4">
  <style
   type="text/css"
   id="style2">
   <![CDATA[
    .fil0 {fill:#1A1A1A;fill-rule:nonzero}
   ]]>
  </style>
 </defs>
 <g
   id="Layer_x0020_1"
   transform="translate(0,1.0152487e-4)">
  <metadata
   id="CorelCorpID_0Corel-Layer" />
  <path
   class="fil0"
   d="M 771.67168,798 1152.672,581 c -7.0001,-21 -12.0001,-43 -12.0001,-67 0,-92 67.0001,-168 155.0001,-184 V 0 h 64 v 330 c 88,16 155,92 155,184 0,24 -5,46 -13,67 l 382,217 c 14,-16 31,-30 50,-42 80,-46 180,-26 237,42 l 286,-165 32,56 -286,165 c 31,84 -2,180 -82,226 -18,10 -36,17 -55,21 v 442 c 19,4 37,11 55,21 80,46 113,142 82,226 l 286,165 -32,56 -286,-165 c -57,68 -157,88 -237,42 -19,-12 -36,-26 -50,-42 -127,72 -254,145 -382,217 8,21 13,43 13,67 0,92 -67,168 -155,184 v 330 h -64 v -330 c -88,-16 -155.0001,-92 -155.0001,-184 0,-24 5,-46 12.0001,-67 L 771.67168,1846 c -14,16 -31,30 -50,42 -80,46 -180,26 -237,-42 l -285.99999,165 -32,-56 285.99999,-165 c -31,-84 2,-180 82,-226 18,-10 36,-17 55,-21 v -442 c -19,-4 -37,-11 -55,-21 -80,-46 -113,-142 -82,-226 l -285.99999,-165 32,-56 285.99999,165 c 57,-68 157,-88 237,-42 19,12 36,26 50,42 z M 1851.672,1790 c -18,-50 -15,-108 14,-157 30,-52 81,-84 136,-92 v -438 c -55,-8 -106,-40 -136,-92 -29,-49 -32,-107 -14,-157 l -382,-218 c -35,40 -85,65 -142,65 -57,0 -107,-25 -142,-65 L 803.67168,854 c 18,50 15,108 -14,157 -30,52 -81,84 -136,92 v 438 c 55,8 106,40 136,92 29,49 32,107 14,157 l 382.00032,218 c 35,-40 85,-65 142,-65 57,0 107,25 142,65 z"
   id="path7"
   inkscape:connector-curvature="0"
   style="fill:#1a1a1a;fill-rule:nonzero" />
 </g>
</svg>