<svg width="1181" height="254" viewBox="0 0 1181 254" fill="none" xmlns="http://www.w3.org/2000/svg">
<path d="M58.0783 76.6095L94.6532 55.7782C93.9812 53.7622 93.5012 51.6503 93.5012 49.3464C93.5012 40.5146 99.933 33.2188 108.381 31.6829V0.00383759H114.525V31.6829C122.972 33.2188 129.404 40.5146 129.404 49.3464C129.404 51.6503 128.924 53.7622 128.156 55.7782L164.827 76.6095C166.171 75.0736 167.803 73.7296 169.627 72.5777C177.307 68.1618 186.906 70.0817 192.378 76.6095L219.833 60.77L222.905 66.1458L195.45 81.9854C198.426 90.0491 195.258 99.2648 187.578 103.681C185.85 104.641 184.123 105.313 182.299 105.697V148.127C184.123 148.511 185.85 149.183 187.578 150.143C195.258 154.559 198.426 163.775 195.45 171.839L222.905 187.678L219.833 193.054L192.378 177.215C186.906 183.742 177.307 185.662 169.627 181.246C167.803 180.094 166.171 178.75 164.827 177.215C152.635 184.126 140.444 191.134 128.156 198.046C128.924 200.062 129.404 202.174 129.404 204.478C129.404 213.309 122.972 220.605 114.525 222.141V253.82H108.381V222.141C99.933 220.605 93.5012 213.309 93.5012 204.478C93.5012 202.174 93.9812 200.062 94.6532 198.046L58.0783 177.215C56.7343 178.75 55.1023 180.094 53.2784 181.246C45.5986 185.662 35.9989 183.742 30.5271 177.215L3.07191 193.054L0 187.678L27.4552 171.839C24.4793 163.775 27.6472 154.559 35.3269 150.143C37.0549 149.183 38.7828 148.511 40.6068 148.127V105.697C38.7828 105.313 37.0549 104.641 35.3269 103.681C27.6472 99.2648 24.4793 90.0491 27.4552 81.9854L0 66.1458L3.07191 60.77L30.5271 76.6095C35.9989 70.0817 45.5986 68.1618 53.2784 72.5777C55.1023 73.7296 56.7343 75.0736 58.0783 76.6095ZM161.755 171.839C160.027 167.039 160.315 161.471 163.099 156.767C165.979 151.775 170.875 148.703 176.155 147.935V105.889C170.875 105.121 165.979 102.049 163.099 97.0569C160.315 92.3531 160.027 86.7852 161.755 81.9854L125.084 61.058C121.724 64.8979 116.925 67.2978 111.453 67.2978C105.981 67.2978 101.181 64.8979 97.8211 61.058L61.1502 81.9854C62.8781 86.7852 62.5901 92.3531 59.8062 97.0569C56.9263 102.049 52.0304 105.121 46.7506 105.889V147.935C52.0304 148.703 56.9263 151.775 59.8062 156.767C62.5901 161.471 62.8781 167.039 61.1502 171.839L97.8211 192.766C101.181 188.926 105.981 186.526 111.453 186.526C116.925 186.526 121.724 188.926 125.084 192.766L161.755 171.839Z" fill="#1A1A1A"/>
<path d="M386.046 123.787V167.225C384.431 169.36 381.905 171.704 378.468 174.256C375.082 176.756 370.577 178.917 364.952 180.74C359.327 182.563 352.322 183.475 343.937 183.475C336.801 183.475 330.265 182.277 324.327 179.881C318.39 177.433 313.259 173.865 308.937 169.178C304.666 164.49 301.358 158.787 299.015 152.068C296.671 145.297 295.499 137.589 295.499 128.943V121.053C295.499 112.459 296.567 104.803 298.702 98.0839C300.89 91.3131 304.015 85.5839 308.077 80.8964C312.14 76.2089 317.035 72.6672 322.765 70.2714C328.546 67.8235 335.082 66.5995 342.374 66.5995C351.697 66.5995 359.405 68.162 365.499 71.287C371.645 74.3599 376.384 78.6308 379.718 84.0995C383.051 89.5683 385.16 95.8183 386.046 102.85H366.827C366.202 98.8912 364.978 95.3495 363.155 92.2245C361.384 89.0995 358.832 86.6516 355.499 84.8808C352.218 83.0579 347.947 82.1464 342.687 82.1464C338.155 82.1464 334.171 83.0058 330.733 84.7245C327.296 86.4433 324.431 88.9693 322.14 92.3026C319.9 95.636 318.207 99.6985 317.062 104.49C315.916 109.282 315.343 114.751 315.343 120.896V128.943C315.343 135.193 315.994 140.74 317.296 145.584C318.65 150.428 320.577 154.516 323.077 157.85C325.629 161.183 328.728 163.709 332.374 165.428C336.02 167.094 340.134 167.928 344.718 167.928C349.197 167.928 352.869 167.563 355.733 166.834C358.598 166.053 360.864 165.141 362.53 164.1C364.249 163.006 365.577 161.964 366.515 160.975V138.396H342.843V123.787H386.046ZM424.546 113.475V181.912H405.718V97.3808H423.687L424.546 113.475ZM450.405 96.8339L450.249 114.334C449.103 114.126 447.853 113.969 446.499 113.865C445.197 113.761 443.895 113.709 442.593 113.709C439.364 113.709 436.525 114.178 434.077 115.115C431.629 116.001 429.572 117.303 427.905 119.021C426.291 120.688 425.041 122.719 424.155 125.115C423.27 127.511 422.749 130.193 422.593 133.162L418.296 133.475C418.296 128.162 418.817 123.24 419.858 118.709C420.9 114.178 422.463 110.193 424.546 106.756C426.681 103.318 429.338 100.636 432.515 98.7089C435.744 96.7818 439.468 95.8183 443.687 95.8183C444.832 95.8183 446.056 95.9224 447.358 96.1308C448.713 96.3391 449.728 96.5735 450.405 96.8339ZM506.796 164.959V124.646C506.796 121.626 506.249 119.021 505.155 116.834C504.062 114.646 502.395 112.954 500.155 111.756C497.968 110.558 495.207 109.959 491.874 109.959C488.801 109.959 486.145 110.48 483.905 111.521C481.666 112.563 479.921 113.969 478.671 115.74C477.421 117.511 476.796 119.516 476.796 121.756H458.046C458.046 118.422 458.853 115.193 460.468 112.068C462.082 108.943 464.426 106.157 467.499 103.709C470.572 101.261 474.244 99.3339 478.515 97.9276C482.785 96.5214 487.577 95.8183 492.89 95.8183C499.244 95.8183 504.869 96.886 509.765 99.0214C514.713 101.157 518.593 104.386 521.405 108.709C524.27 112.98 525.702 118.344 525.702 124.803V162.381C525.702 166.235 525.963 169.698 526.483 172.771C527.056 175.792 527.864 178.422 528.905 180.662V181.912H509.608C508.723 179.881 508.02 177.303 507.499 174.178C507.03 171.001 506.796 167.928 506.796 164.959ZM509.53 130.506L509.687 142.146H496.171C492.681 142.146 489.608 142.485 486.952 143.162C484.296 143.787 482.082 144.725 480.312 145.975C478.541 147.225 477.213 148.735 476.327 150.506C475.442 152.277 474.999 154.282 474.999 156.521C474.999 158.761 475.52 160.818 476.562 162.693C477.603 164.516 479.114 165.948 481.093 166.99C483.124 168.032 485.572 168.553 488.437 168.553C492.291 168.553 495.65 167.771 498.515 166.209C501.431 164.594 503.723 162.641 505.39 160.35C507.056 158.006 507.942 155.792 508.046 153.709L514.14 162.068C513.515 164.204 512.447 166.495 510.937 168.943C509.426 171.391 507.447 173.735 504.999 175.975C502.603 178.162 499.713 179.959 496.327 181.365C492.994 182.771 489.14 183.475 484.765 183.475C479.244 183.475 474.322 182.381 469.999 180.193C465.676 177.954 462.291 174.959 459.843 171.209C457.395 167.407 456.171 163.11 456.171 158.318C456.171 153.839 457.004 149.881 458.671 146.443C460.39 142.954 462.89 140.037 466.171 137.693C469.504 135.35 473.567 133.579 478.358 132.381C483.15 131.131 488.619 130.506 494.765 130.506H509.53ZM564.046 113.631V214.412H545.218V97.3808H562.562L564.046 113.631ZM619.124 138.865V140.506C619.124 146.652 618.395 152.355 616.937 157.615C615.53 162.823 613.421 167.381 610.608 171.287C607.848 175.141 604.437 178.136 600.374 180.271C596.312 182.407 591.624 183.475 586.312 183.475C581.051 183.475 576.442 182.511 572.483 180.584C568.577 178.605 565.27 175.818 562.562 172.225C559.853 168.631 557.666 164.412 555.999 159.568C554.384 154.672 553.239 149.308 552.562 143.475V137.146C553.239 130.948 554.384 125.323 555.999 120.271C557.666 115.219 559.853 110.87 562.562 107.225C565.27 103.579 568.577 100.766 572.483 98.787C576.39 96.8079 580.947 95.8183 586.155 95.8183C591.468 95.8183 596.181 96.8599 600.296 98.9433C604.41 100.975 607.874 103.891 610.687 107.693C613.499 111.443 615.608 115.975 617.015 121.287C618.421 126.547 619.124 132.407 619.124 138.865ZM600.296 140.506V138.865C600.296 134.959 599.931 131.339 599.202 128.006C598.473 124.62 597.327 121.652 595.765 119.1C594.202 116.547 592.197 114.568 589.749 113.162C587.353 111.704 584.463 110.975 581.077 110.975C577.744 110.975 574.879 111.547 572.483 112.693C570.088 113.787 568.082 115.323 566.468 117.303C564.853 119.282 563.603 121.6 562.718 124.256C561.832 126.86 561.207 129.698 560.843 132.771V147.928C561.468 151.678 562.535 155.115 564.046 158.24C565.556 161.365 567.692 163.865 570.452 165.74C573.265 167.563 576.858 168.475 581.233 168.475C584.619 168.475 587.509 167.745 589.905 166.287C592.301 164.829 594.254 162.823 595.765 160.271C597.327 157.667 598.473 154.672 599.202 151.287C599.931 147.902 600.296 144.308 600.296 140.506ZM653.483 61.912V181.912H634.733V61.912H653.483ZM650.202 136.521L644.108 136.443C644.16 130.61 644.968 125.219 646.53 120.271C648.145 115.323 650.384 111.027 653.249 107.381C656.166 103.683 659.655 100.844 663.718 98.8651C667.78 96.8339 672.285 95.8183 677.233 95.8183C681.4 95.8183 685.15 96.3912 688.483 97.537C691.869 98.6829 694.785 100.532 697.233 103.084C699.681 105.584 701.53 108.865 702.78 112.928C704.082 116.938 704.733 121.834 704.733 127.615V181.912H685.827V127.459C685.827 123.396 685.228 120.167 684.03 117.771C682.884 115.376 681.192 113.657 678.952 112.615C676.713 111.521 673.978 110.975 670.749 110.975C667.364 110.975 664.369 111.652 661.765 113.006C659.213 114.36 657.077 116.209 655.358 118.553C653.64 120.896 652.338 123.605 651.452 126.678C650.619 129.751 650.202 133.032 650.202 136.521ZM760.812 183.475C754.562 183.475 748.91 182.459 743.858 180.428C738.858 178.344 734.588 175.454 731.046 171.756C727.556 168.058 724.874 163.709 722.999 158.709C721.124 153.709 720.187 148.318 720.187 142.537V139.412C720.187 132.797 721.15 126.808 723.077 121.443C725.004 116.079 727.687 111.495 731.124 107.693C734.562 103.839 738.624 100.896 743.312 98.8651C747.999 96.8339 753.077 95.8183 758.546 95.8183C764.588 95.8183 769.874 96.8339 774.405 98.8651C778.937 100.896 782.687 103.761 785.655 107.459C788.676 111.105 790.916 115.454 792.374 120.506C793.884 125.558 794.64 131.131 794.64 137.225V145.271H729.327V131.756H776.046V130.271C775.942 126.886 775.265 123.709 774.015 120.74C772.817 117.771 770.968 115.376 768.468 113.553C765.968 111.73 762.634 110.818 758.468 110.818C755.343 110.818 752.556 111.495 750.108 112.85C747.713 114.152 745.707 116.053 744.093 118.553C742.478 121.053 741.228 124.073 740.343 127.615C739.509 131.105 739.093 135.037 739.093 139.412V142.537C739.093 146.235 739.588 149.672 740.577 152.85C741.619 155.975 743.129 158.709 745.108 161.053C747.088 163.396 749.483 165.245 752.296 166.6C755.108 167.902 758.312 168.553 761.905 168.553C766.437 168.553 770.473 167.641 774.015 165.818C777.556 163.995 780.629 161.417 783.233 158.084L793.155 167.693C791.332 170.35 788.963 172.902 786.046 175.35C783.129 177.745 779.562 179.698 775.343 181.209C771.176 182.719 766.332 183.475 760.812 183.475ZM827.749 115.428V181.912H808.921V97.3808H826.655L827.749 115.428ZM824.39 136.521L818.296 136.443C818.348 130.454 819.181 124.959 820.796 119.959C822.463 114.959 824.754 110.662 827.671 107.068C830.64 103.475 834.181 100.714 838.296 98.787C842.41 96.8079 846.994 95.8183 852.046 95.8183C856.108 95.8183 859.78 96.3912 863.062 97.537C866.395 98.6308 869.233 100.428 871.577 102.928C873.973 105.428 875.796 108.683 877.046 112.693C878.296 116.652 878.921 121.521 878.921 127.303V181.912H860.015V127.225C860.015 123.162 859.416 119.959 858.218 117.615C857.072 115.219 855.379 113.527 853.14 112.537C850.952 111.495 848.218 110.975 844.937 110.975C841.707 110.975 838.817 111.652 836.265 113.006C833.713 114.36 831.551 116.209 829.78 118.553C828.062 120.896 826.733 123.605 825.796 126.678C824.858 129.751 824.39 133.032 824.39 136.521ZM935.155 183.475C928.905 183.475 923.254 182.459 918.202 180.428C913.202 178.344 908.931 175.454 905.39 171.756C901.9 168.058 899.218 163.709 897.343 158.709C895.468 153.709 894.53 148.318 894.53 142.537V139.412C894.53 132.797 895.494 126.808 897.421 121.443C899.348 116.079 902.03 111.495 905.468 107.693C908.905 103.839 912.968 100.896 917.655 98.8651C922.343 96.8339 927.421 95.8183 932.89 95.8183C938.931 95.8183 944.218 96.8339 948.749 98.8651C953.28 100.896 957.03 103.761 959.999 107.459C963.02 111.105 965.259 115.454 966.718 120.506C968.228 125.558 968.983 131.131 968.983 137.225V145.271H903.671V131.756H950.39V130.271C950.285 126.886 949.608 123.709 948.358 120.74C947.16 117.771 945.312 115.376 942.812 113.553C940.312 111.73 936.978 110.818 932.812 110.818C929.687 110.818 926.9 111.495 924.452 112.85C922.056 114.152 920.051 116.053 918.437 118.553C916.822 121.053 915.572 124.073 914.687 127.615C913.853 131.105 913.437 135.037 913.437 139.412V142.537C913.437 146.235 913.931 149.672 914.921 152.85C915.963 155.975 917.473 158.709 919.452 161.053C921.431 163.396 923.827 165.245 926.64 166.6C929.452 167.902 932.655 168.553 936.249 168.553C940.78 168.553 944.817 167.641 948.358 165.818C951.9 163.995 954.973 161.417 957.577 158.084L967.499 167.693C965.676 170.35 963.306 172.902 960.39 175.35C957.473 177.745 953.905 179.698 949.687 181.209C945.52 182.719 940.676 183.475 935.155 183.475ZM1076 121.912V128.162C1076 136.756 1074.88 144.464 1072.64 151.287C1070.4 158.11 1067.2 163.917 1063.03 168.709C1058.92 173.501 1053.97 177.172 1048.19 179.725C1042.41 182.225 1036 183.475 1028.97 183.475C1021.99 183.475 1015.61 182.225 1009.83 179.725C1004.1 177.172 999.124 173.501 994.905 168.709C990.687 163.917 987.405 158.11 985.062 151.287C982.77 144.464 981.624 136.756 981.624 128.162V121.912C981.624 113.318 982.77 105.636 985.062 98.8651C987.353 92.0422 990.582 86.2349 994.749 81.4433C998.968 76.5995 1003.94 72.9276 1009.67 70.4276C1015.45 67.8756 1021.83 66.5995 1028.81 66.5995C1035.84 66.5995 1042.25 67.8756 1048.03 70.4276C1053.81 72.9276 1058.79 76.5995 1062.95 81.4433C1067.12 86.2349 1070.32 92.0422 1072.56 98.8651C1074.85 105.636 1076 113.318 1076 121.912ZM1056.39 128.162V121.756C1056.39 115.402 1055.76 109.803 1054.51 104.959C1053.32 100.063 1051.52 95.9745 1049.12 92.6933C1046.78 89.3599 1043.89 86.8599 1040.45 85.1933C1037.01 83.4745 1033.13 82.6151 1028.81 82.6151C1024.49 82.6151 1020.63 83.4745 1017.25 85.1933C1013.86 86.8599 1010.97 89.3599 1008.58 92.6933C1006.23 95.9745 1004.44 100.063 1003.19 104.959C1001.94 109.803 1001.31 115.402 1001.31 121.756V128.162C1001.31 134.516 1001.94 140.141 1003.19 145.037C1004.44 149.933 1006.26 154.073 1008.66 157.459C1011.1 160.792 1014.02 163.318 1017.41 165.037C1020.79 166.704 1024.64 167.537 1028.97 167.537C1033.34 167.537 1037.22 166.704 1040.61 165.037C1043.99 163.318 1046.86 160.792 1049.2 157.459C1051.55 154.073 1053.32 149.933 1054.51 145.037C1055.76 140.141 1056.39 134.516 1056.39 128.162ZM1155.2 152.615C1155.2 150.271 1154.84 148.188 1154.11 146.365C1153.43 144.542 1152.21 142.876 1150.44 141.365C1148.67 139.855 1146.17 138.396 1142.94 136.99C1139.76 135.532 1135.7 134.047 1130.75 132.537C1125.33 130.87 1120.33 129.021 1115.75 126.99C1111.22 124.907 1107.26 122.511 1103.87 119.803C1100.49 117.042 1097.86 113.891 1095.98 110.35C1094.11 106.756 1093.17 102.615 1093.17 97.9276C1093.17 93.2922 1094.13 89.0735 1096.06 85.2714C1098.04 81.4693 1100.83 78.1881 1104.42 75.4276C1108.07 72.6151 1112.36 70.4537 1117.31 68.9433C1122.26 67.3808 1127.73 66.5995 1133.72 66.5995C1142.16 66.5995 1149.42 68.162 1155.51 71.287C1161.66 74.412 1166.37 78.6047 1169.66 83.8651C1172.99 89.1256 1174.66 94.9329 1174.66 101.287H1155.2C1155.2 97.537 1154.39 94.2297 1152.78 91.3651C1151.22 88.4485 1148.82 86.1568 1145.59 84.4901C1142.42 82.8235 1138.38 81.9901 1133.48 81.9901C1128.85 81.9901 1124.99 82.6933 1121.92 84.0995C1118.85 85.5058 1116.56 87.4068 1115.05 89.8026C1113.54 92.1985 1112.78 94.9068 1112.78 97.9276C1112.78 100.063 1113.28 102.016 1114.26 103.787C1115.25 105.506 1116.76 107.12 1118.8 108.631C1120.83 110.089 1123.38 111.469 1126.45 112.771C1129.53 114.073 1133.14 115.323 1137.31 116.521C1143.61 118.396 1149.11 120.48 1153.8 122.771C1158.48 125.011 1162.39 127.563 1165.51 130.428C1168.64 133.292 1170.98 136.547 1172.55 140.193C1174.11 143.787 1174.89 147.876 1174.89 152.459C1174.89 157.251 1173.93 161.573 1172 165.428C1170.07 169.23 1167.31 172.485 1163.72 175.193C1160.18 177.85 1155.91 179.907 1150.91 181.365C1145.96 182.771 1140.44 183.475 1134.34 183.475C1128.87 183.475 1123.48 182.745 1118.17 181.287C1112.91 179.829 1108.12 177.615 1103.8 174.646C1099.47 171.626 1096.04 167.876 1093.48 163.396C1090.93 158.865 1089.66 153.579 1089.66 147.537H1109.26C1109.26 151.235 1109.89 154.386 1111.14 156.99C1112.44 159.594 1114.24 161.73 1116.53 163.396C1118.82 165.011 1121.48 166.209 1124.5 166.99C1127.57 167.771 1130.85 168.162 1134.34 168.162C1138.93 168.162 1142.75 167.511 1145.83 166.209C1148.95 164.907 1151.3 163.084 1152.86 160.74C1154.42 158.396 1155.2 155.688 1155.2 152.615Z" fill="#1A1A1A"/>
</svg>
