<svg width="128" height="128" viewBox="0 0 128 128" fill="none" xmlns="http://www.w3.org/2000/svg">
<rect width="128" height="128" rx="12" fill="#0053A3"/>
<path d="M9.66797 115L11.5 105.047H12.6211L10.7891 115H9.66797ZM12.334 115L14.166 105.047H15.2871L13.4551 115H12.334ZM16.2168 108.95H9.10742V107.891H16.2168V108.95ZM15.7041 112.197H8.58789V111.138H15.7041V112.197ZM23.7885 109.189V110.816C23.7885 111.596 23.711 112.261 23.5561 112.812C23.4057 113.359 23.1869 113.804 22.8998 114.146C22.6127 114.487 22.2686 114.738 21.8676 114.897C21.4711 115.057 21.0268 115.137 20.5346 115.137C20.1426 115.137 19.7781 115.087 19.4408 114.986C19.1081 114.886 18.8074 114.729 18.5385 114.515C18.2696 114.3 18.0395 114.025 17.848 113.688C17.6612 113.346 17.5154 112.938 17.4105 112.464C17.3103 111.99 17.2602 111.441 17.2602 110.816V109.189C17.2602 108.406 17.3376 107.745 17.4926 107.207C17.6475 106.665 17.8686 106.225 18.1557 105.888C18.4428 105.546 18.7846 105.298 19.1811 105.143C19.5821 104.988 20.0287 104.91 20.5209 104.91C20.9174 104.91 21.282 104.96 21.6146 105.061C21.9519 105.156 22.2527 105.309 22.517 105.519C22.7859 105.728 23.0137 106.002 23.2006 106.339C23.392 106.672 23.5378 107.075 23.6381 107.549C23.7383 108.018 23.7885 108.565 23.7885 109.189ZM22.141 111.049V108.943C22.141 108.547 22.1182 108.198 22.0727 107.897C22.0271 107.592 21.9587 107.335 21.8676 107.125C21.781 106.911 21.6716 106.738 21.5395 106.605C21.4073 106.469 21.2569 106.371 21.0883 106.312C20.9197 106.248 20.7305 106.216 20.5209 106.216C20.2657 106.216 20.0378 106.266 19.8373 106.366C19.6368 106.462 19.4682 106.617 19.3314 106.831C19.1947 107.045 19.0899 107.328 19.017 107.679C18.9486 108.025 18.9145 108.447 18.9145 108.943V111.049C18.9145 111.45 18.9372 111.803 18.9828 112.108C19.0284 112.414 19.0967 112.676 19.1879 112.895C19.279 113.109 19.3884 113.286 19.516 113.428C19.6482 113.564 19.7986 113.665 19.9672 113.729C20.1404 113.792 20.3295 113.824 20.5346 113.824C20.7943 113.824 21.0245 113.774 21.225 113.674C21.4255 113.574 21.5941 113.414 21.7309 113.195C21.8676 112.972 21.9701 112.683 22.0385 112.327C22.1068 111.972 22.141 111.546 22.141 111.049ZM31.8455 109.189V110.816C31.8455 111.596 31.768 112.261 31.6131 112.812C31.4627 113.359 31.2439 113.804 30.9568 114.146C30.6697 114.487 30.3257 114.738 29.9246 114.897C29.5281 115.057 29.0838 115.137 28.5916 115.137C28.1997 115.137 27.8351 115.087 27.4979 114.986C27.1652 114.886 26.8644 114.729 26.5955 114.515C26.3266 114.3 26.0965 114.025 25.9051 113.688C25.7182 113.346 25.5724 112.938 25.4676 112.464C25.3673 111.99 25.3172 111.441 25.3172 110.816V109.189C25.3172 108.406 25.3947 107.745 25.5496 107.207C25.7046 106.665 25.9256 106.225 26.2127 105.888C26.4998 105.546 26.8416 105.298 27.2381 105.143C27.6391 104.988 28.0857 104.91 28.5779 104.91C28.9744 104.91 29.339 104.96 29.6717 105.061C30.0089 105.156 30.3097 105.309 30.574 105.519C30.8429 105.728 31.0708 106.002 31.2576 106.339C31.449 106.672 31.5949 107.075 31.6951 107.549C31.7954 108.018 31.8455 108.565 31.8455 109.189ZM30.198 111.049V108.943C30.198 108.547 30.1753 108.198 30.1297 107.897C30.0841 107.592 30.0158 107.335 29.9246 107.125C29.838 106.911 29.7286 106.738 29.5965 106.605C29.4643 106.469 29.3139 106.371 29.1453 106.312C28.9767 106.248 28.7876 106.216 28.5779 106.216C28.3227 106.216 28.0949 106.266 27.8943 106.366C27.6938 106.462 27.5252 106.617 27.3885 106.831C27.2518 107.045 27.1469 107.328 27.074 107.679C27.0057 108.025 26.9715 108.447 26.9715 108.943V111.049C26.9715 111.45 26.9943 111.803 27.0398 112.108C27.0854 112.414 27.1538 112.676 27.2449 112.895C27.3361 113.109 27.4454 113.286 27.573 113.428C27.7052 113.564 27.8556 113.665 28.0242 113.729C28.1974 113.792 28.3865 113.824 28.5916 113.824C28.8514 113.824 29.0815 113.774 29.282 113.674C29.4826 113.574 29.6512 113.414 29.7879 113.195C29.9246 112.972 30.0271 112.683 30.0955 112.327C30.1639 111.972 30.198 111.546 30.198 111.049ZM35.1447 110.372L33.8322 110.051L34.3723 105.047H39.7385V106.441H35.7395L35.466 108.882C35.621 108.791 35.8352 108.702 36.1086 108.615C36.382 108.524 36.6942 108.479 37.0451 108.479C37.5145 108.479 37.9338 108.556 38.3029 108.711C38.6766 108.861 38.9934 109.082 39.2531 109.374C39.5129 109.661 39.7111 110.012 39.8479 110.427C39.9846 110.837 40.0529 111.299 40.0529 111.814C40.0529 112.275 39.9846 112.705 39.8479 113.106C39.7157 113.507 39.5152 113.861 39.2463 114.166C38.9774 114.471 38.6379 114.711 38.2277 114.884C37.8221 115.052 37.3413 115.137 36.7854 115.137C36.3706 115.137 35.9719 115.077 35.5891 114.959C35.2108 114.836 34.8713 114.656 34.5705 114.419C34.2697 114.177 34.0282 113.881 33.8459 113.53C33.6636 113.175 33.5588 112.767 33.5314 112.307H35.1447C35.1857 112.63 35.2746 112.906 35.4113 113.134C35.5526 113.357 35.7395 113.528 35.9719 113.646C36.2043 113.765 36.4732 113.824 36.7785 113.824C37.0565 113.824 37.2958 113.776 37.4963 113.681C37.6968 113.58 37.8632 113.439 37.9953 113.257C38.132 113.07 38.2323 112.851 38.2961 112.601C38.3645 112.35 38.3986 112.072 38.3986 111.767C38.3986 111.475 38.3599 111.208 38.2824 110.967C38.2095 110.725 38.0979 110.516 37.9475 110.338C37.8016 110.16 37.6171 110.023 37.3937 109.928C37.1704 109.827 36.913 109.777 36.6213 109.777C36.2294 109.777 35.9286 109.834 35.7189 109.948C35.5139 110.062 35.3225 110.203 35.1447 110.372ZM43.4068 109.278H44.3912C44.774 109.278 45.0908 109.212 45.3414 109.08C45.5966 108.948 45.7857 108.766 45.9088 108.533C46.0318 108.301 46.0934 108.034 46.0934 107.733C46.0934 107.419 46.0364 107.15 45.9225 106.927C45.8131 106.699 45.6445 106.523 45.4166 106.4C45.1933 106.277 44.9085 106.216 44.5621 106.216C44.2704 106.216 44.0061 106.275 43.7691 106.394C43.5367 106.507 43.3521 106.672 43.2154 106.886C43.0787 107.095 43.0104 107.346 43.0104 107.638H41.3561C41.3561 107.109 41.4951 106.64 41.773 106.229C42.051 105.819 42.4293 105.498 42.9078 105.266C43.3909 105.029 43.9332 104.91 44.5348 104.91C45.1773 104.91 45.7379 105.017 46.2164 105.231C46.6995 105.441 47.0755 105.756 47.3443 106.175C47.6132 106.594 47.7477 107.114 47.7477 107.733C47.7477 108.016 47.6816 108.303 47.5494 108.595C47.4173 108.886 47.2213 109.153 46.9615 109.395C46.7018 109.632 46.3782 109.825 45.9908 109.976C45.6035 110.121 45.1546 110.194 44.6441 110.194H43.4068V109.278ZM43.4068 110.563V109.661H44.6441C45.2275 109.661 45.7242 109.729 46.1344 109.866C46.5491 110.003 46.8863 110.192 47.1461 110.434C47.4059 110.671 47.595 110.942 47.7135 111.247C47.8365 111.552 47.898 111.876 47.898 112.218C47.898 112.683 47.8137 113.097 47.6451 113.462C47.4811 113.822 47.2464 114.127 46.941 114.378C46.6357 114.629 46.2779 114.818 45.8678 114.945C45.4622 115.073 45.0201 115.137 44.5416 115.137C44.1132 115.137 43.7031 115.077 43.3111 114.959C42.9192 114.84 42.5683 114.665 42.2584 114.433C41.9485 114.196 41.7024 113.902 41.5201 113.551C41.3424 113.195 41.2535 112.785 41.2535 112.32H42.901C42.901 112.617 42.9693 112.879 43.1061 113.106C43.2473 113.33 43.4433 113.505 43.6939 113.633C43.9492 113.76 44.2408 113.824 44.5689 113.824C44.9153 113.824 45.2138 113.763 45.4645 113.64C45.7151 113.517 45.9065 113.334 46.0387 113.093C46.1754 112.851 46.2438 112.56 46.2438 112.218C46.2438 111.83 46.1686 111.516 46.0182 111.274C45.8678 111.033 45.6536 110.855 45.3756 110.741C45.0976 110.623 44.7695 110.563 44.3912 110.563H43.4068ZM53.7949 113.517V109.989C53.7949 109.725 53.7471 109.497 53.6514 109.306C53.5557 109.114 53.4098 108.966 53.2139 108.861C53.0225 108.757 52.7809 108.704 52.4893 108.704C52.2204 108.704 51.988 108.75 51.792 108.841C51.596 108.932 51.4434 109.055 51.334 109.21C51.2246 109.365 51.1699 109.54 51.1699 109.736H49.5293C49.5293 109.445 49.5999 109.162 49.7412 108.889C49.8825 108.615 50.0876 108.371 50.3564 108.157C50.6253 107.943 50.9466 107.774 51.3203 107.651C51.694 107.528 52.1133 107.467 52.5781 107.467C53.1341 107.467 53.6263 107.56 54.0547 107.747C54.4876 107.934 54.8271 108.216 55.0732 108.595C55.3239 108.968 55.4492 109.438 55.4492 110.003V113.291C55.4492 113.628 55.472 113.931 55.5176 114.2C55.5677 114.465 55.6383 114.695 55.7295 114.891V115H54.041C53.9635 114.822 53.902 114.597 53.8564 114.323C53.8154 114.045 53.7949 113.776 53.7949 113.517ZM54.0342 110.502L54.0479 111.521H52.8652C52.5599 111.521 52.291 111.55 52.0586 111.609C51.8262 111.664 51.6325 111.746 51.4775 111.855C51.3226 111.965 51.2064 112.097 51.1289 112.252C51.0514 112.407 51.0127 112.582 51.0127 112.778C51.0127 112.974 51.0583 113.154 51.1494 113.318C51.2406 113.478 51.3727 113.603 51.5459 113.694C51.7236 113.785 51.9378 113.831 52.1885 113.831C52.5257 113.831 52.8197 113.763 53.0703 113.626C53.3255 113.485 53.526 113.314 53.6719 113.113C53.8177 112.908 53.8952 112.715 53.9043 112.532L54.4375 113.264C54.3828 113.451 54.2894 113.651 54.1572 113.865C54.0251 114.079 53.8519 114.285 53.6377 114.48C53.4281 114.672 53.1751 114.829 52.8789 114.952C52.5872 115.075 52.25 115.137 51.8672 115.137C51.3841 115.137 50.9535 115.041 50.5752 114.85C50.1969 114.654 49.9007 114.392 49.6865 114.063C49.4723 113.731 49.3652 113.355 49.3652 112.936C49.3652 112.544 49.4382 112.197 49.584 111.896C49.7344 111.591 49.9531 111.336 50.2402 111.131C50.5319 110.926 50.8874 110.771 51.3066 110.666C51.7259 110.557 52.2044 110.502 52.7422 110.502H54.0342ZM59.1107 109.278H60.0951C60.4779 109.278 60.7947 109.212 61.0453 109.08C61.3005 108.948 61.4896 108.766 61.6127 108.533C61.7357 108.301 61.7973 108.034 61.7973 107.733C61.7973 107.419 61.7403 107.15 61.6264 106.927C61.517 106.699 61.3484 106.523 61.1205 106.4C60.8972 106.277 60.6124 106.216 60.266 106.216C59.9743 106.216 59.71 106.275 59.473 106.394C59.2406 106.507 59.0561 106.672 58.9193 106.886C58.7826 107.095 58.7143 107.346 58.7143 107.638H57.06C57.06 107.109 57.199 106.64 57.477 106.229C57.7549 105.819 58.1332 105.498 58.6117 105.266C59.0948 105.029 59.6371 104.91 60.2387 104.91C60.8812 104.91 61.4418 105.017 61.9203 105.231C62.4034 105.441 62.7794 105.756 63.0482 106.175C63.3171 106.594 63.4516 107.114 63.4516 107.733C63.4516 108.016 63.3855 108.303 63.2533 108.595C63.1212 108.886 62.9252 109.153 62.6654 109.395C62.4057 109.632 62.0821 109.825 61.6947 109.976C61.3074 110.121 60.8585 110.194 60.348 110.194H59.1107V109.278ZM59.1107 110.563V109.661H60.348C60.9314 109.661 61.4281 109.729 61.8383 109.866C62.253 110.003 62.5902 110.192 62.85 110.434C63.1098 110.671 63.2989 110.942 63.4174 111.247C63.5404 111.552 63.602 111.876 63.602 112.218C63.602 112.683 63.5176 113.097 63.349 113.462C63.185 113.822 62.9503 114.127 62.6449 114.378C62.3396 114.629 61.9818 114.818 61.5717 114.945C61.1661 115.073 60.724 115.137 60.2455 115.137C59.8171 115.137 59.407 115.077 59.015 114.959C58.6231 114.84 58.2722 114.665 57.9623 114.433C57.6524 114.196 57.4063 113.902 57.224 113.551C57.0463 113.195 56.9574 112.785 56.9574 112.32H58.6049C58.6049 112.617 58.6732 112.879 58.81 113.106C58.9512 113.33 59.1472 113.505 59.3979 113.633C59.6531 113.76 59.9447 113.824 60.2729 113.824C60.6192 113.824 60.9177 113.763 61.1684 113.64C61.419 113.517 61.6104 113.334 61.7426 113.093C61.8793 112.851 61.9477 112.56 61.9477 112.218C61.9477 111.83 61.8725 111.516 61.7221 111.274C61.5717 111.033 61.3575 110.855 61.0795 110.741C60.8015 110.623 60.4734 110.563 60.0951 110.563H59.1107Z" fill="white" fill-opacity="0.87"/>
</svg>
